<svg xmlns="http://www.w3.org/2000/svg" width="672.855" height="450" viewBox="0 0 672.855 450">
  <g id="Group_1" data-name="Group 1" transform="translate(-627.496 -321.798)">
    <g id="_m_moS_mQ_m" data-name="~m`moS&gt;mQ&gt;m" transform="translate(430 -857)">
      <text id="_m_moS_mQ_m-2" data-name="~m`moS&gt;mQ&gt;m" transform="translate(199.496 1329.391)" fill="#ff407d" font-size="187.853" font-family="SHREE-DEV-1094" letter-spacing="-0.01em"><tspan x="0" y="0">~m`moS&gt;mQ&gt;m</tspan></text>
      <path id="Color_Overlay" data-name="Color Overlay" d="M197.661,1237.666H284.25v14.676H269.574v77.049h-15.96v-11.007a21.04,21.04,0,0,1-6.971,3.669,29.556,29.556,0,0,1-8.989,1.284,30.457,30.457,0,0,1-22.564-9.539,31.794,31.794,0,0,1-9.356-23.115,30.175,30.175,0,0,1,9.081-22.014,29.722,29.722,0,0,1,21.922-9.172,33.684,33.684,0,0,1,9.631,1.284,20.729,20.729,0,0,1,7.246,3.669v-12.108H197.661Zm31.187,38.891,24.766,17.244v-3.119a15.249,15.249,0,0,0-4.953-11.374,16.574,16.574,0,0,0-11.924-4.77,18.525,18.525,0,0,0-4.678.55A8.271,8.271,0,0,0,228.848,1276.557Zm-6.788,10.824q-.183.734-.367,1.559a8.015,8.015,0,0,0-.183,1.743,16.574,16.574,0,0,0,4.77,11.924,15.248,15.248,0,0,0,11.374,4.953,20.783,20.783,0,0,0,4.586-.459,15.481,15.481,0,0,0,3.486-1.192Zm56.642-49.715h45.129v14.676H309.155v77.049H293.378v-77.049H278.7Zm39.581,0h95.027v14.676H398.635v77.049H382.858V1312.33a29.1,29.1,0,0,1-8.9,4.861,32.638,32.638,0,0,1-10.732,1.743A35.575,35.575,0,0,1,337,1308.019a36.029,36.029,0,0,1-10.824-26.325v-15.043h15.777v2.752a9.223,9.223,0,0,0,6.788-2.752,9.007,9.007,0,0,0,2.752-6.6,21.748,21.748,0,0,0-.459-4.77,7.429,7.429,0,0,0-1.192-2.935H318.284Zm47.147,14.676a14,14,0,0,1,1.376,3.577,17.784,17.784,0,0,1,.459,4.128,24.7,24.7,0,0,1-7.246,17.886,23.574,23.574,0,0,1-17.519,7.43,15.8,15.8,0,0,0,6.054,12.475,21.922,21.922,0,0,0,14.676,5.137,21.64,21.64,0,0,0,11.282-3.119,23.492,23.492,0,0,0,8.347-8.439v-39.075Zm42.333-14.676h45.129v14.676H438.216v77.049H422.439v-77.049H407.763Zm-17.839-44.212q2.2-.734,4.128-1.192a14.882,14.882,0,0,1,3.394-.459,37.044,37.044,0,0,1,27.518,11.649,38.836,38.836,0,0,1,11.374,28.16v6.237h-15.96v-6.237a22.862,22.862,0,0,0-22.931-22.931,14.285,14.285,0,0,0-3.944.55,16.891,16.891,0,0,0-3.577,1.468Zm57.42,44.212h77.049v14.676h-15.96v22.931H491.556q0-.917-1.926-1.651a13.179,13.179,0,0,0-4.678-.734,7.837,7.837,0,0,0-4.678,1.376,3.928,3.928,0,0,0-1.926,3.21q0,1.468,2.385,2.752a21.909,21.909,0,0,0,6.054,2.018q13.025,2.385,21.555,8.9t8.53,14.217q0,9.906-8.9,16.969t-21.555,7.063q-13.025,0-22.2-7.063t-9.172-16.969a16.969,16.969,0,0,1,.459-3.944,26.871,26.871,0,0,1,1.192-3.761l15.96,1.468a24.763,24.763,0,0,0-.917,3.027,13.969,13.969,0,0,0-.367,3.21q0,3.3,4.4,5.687a22.06,22.06,0,0,0,10.64,2.385,18.786,18.786,0,0,0,9.723-2.385q4.036-2.385,4.036-5.687,0-2.568-4.586-5.137a37.778,37.778,0,0,0-11.741-3.852q-10.64-1.835-17.611-7.246t-6.971-11.649q0-8.072,6.971-13.85a25.581,25.581,0,0,1,16.877-5.779,29.907,29.907,0,0,1,5.045.367,15.616,15.616,0,0,1,3.394.917v-6.788H447.344Zm69.623,0H562.1v14.676H547.42v77.049H531.643v-77.049H516.967Zm39.581,0h81.635v14.676H620.939v23.848l-11.007,4.586a15.147,15.147,0,0,0-4.953-2.752,19.048,19.048,0,0,0-6.054-.917,18.291,18.291,0,1,0,18.345,18.345h15.593a33.938,33.938,0,1,1-67.876,0,34.08,34.08,0,0,1,9.906-24.674,32.283,32.283,0,0,1,24.032-10.182,18.076,18.076,0,0,1,2.935.275q1.651.275,3.486.642v-9.172h-48.8Zm74.209,0h45.129v14.676H661.21v77.049H645.434v-77.049H630.758Z" fill="#fff"/>
    </g>
    <g id="__hÎdmMm" data-name="  _hÎdmMm" transform="translate(402.963 -849)">
      <text id="__hÎdmMm-2" data-name=" 
_hÎdmMm" transform="translate(464.942 1340.784)" fill="#ff407d" font-size="124.248" font-family="SHREE-DEV-1094" letter-spacing="-0.01em"><tspan x="0" y="0"> </tspan><tspan x="0" y="111.825">_hÎdmMm</tspan></text>
      <path id="Color_Overlay-2" data-name="Color Overlay" d="M463.729,1391.942h64.429v9.707h-9.707v50.961H508.016v-28.271H496.611v3.761a14.349,14.349,0,0,1-4.186,10.374,13.785,13.785,0,0,1-20.02,0,14.349,14.349,0,0,1-4.186-10.374,12.766,12.766,0,0,1,4.307-9.707,14.851,14.851,0,0,1,10.5-4h3.033v-12.74H463.729Zm32.882,9.707v12.74h11.406v-12.74Zm-14.8,23.3a3.108,3.108,0,0,0-3.155,3.155,4.427,4.427,0,0,0,1.092,2.973,3.388,3.388,0,0,0,2.669,1.274,3.273,3.273,0,0,0,2.548-1.274,4.427,4.427,0,0,0,1.092-2.973v-3.155Zm42.681-33h54.6v9.707H565.743v16.38H555.672q0-1.213-1.7-2a9.75,9.75,0,0,0-4.125-.789,5.65,5.65,0,0,0-3.883,1.4,4.433,4.433,0,0,0-1.577,3.458,3.121,3.121,0,0,0,.546,1.7A3.008,3.008,0,0,0,546.45,1423a20.766,20.766,0,0,1,2.791-.607,23.267,23.267,0,0,1,3.519-.243,22.642,22.642,0,0,1,15.349,5.521,17.116,17.116,0,0,1,6.37,13.408,16.17,16.17,0,0,1-1.092,5.945,14.942,14.942,0,0,1-3.033,4.853l-8.615-4.732a11.106,11.106,0,0,0,1.638-3.033,9.261,9.261,0,0,0,.546-3.033,7.352,7.352,0,0,0-3.276-6.006,12.664,12.664,0,0,0-7.887-2.487,13.854,13.854,0,0,0-8.311,2.487q-3.458,2.487-3.458,6.006a12.028,12.028,0,0,0,3.458,8.676,11.144,11.144,0,0,0,8.311,3.579,11.472,11.472,0,0,0,2.487-.546,16.09,16.09,0,0,0,2.609-1.153l5.46,8.251a15.991,15.991,0,0,1-4.732,2.245,20.485,20.485,0,0,1-5.824.789,21.61,21.61,0,0,1-15.713-6.37,20.865,20.865,0,0,1-6.491-15.47,14.422,14.422,0,0,1,2-7.341,16.021,16.021,0,0,1,5.521-5.642,13.56,13.56,0,0,1-3.155-3.943,8.893,8.893,0,0,1-1.092-4.065,13,13,0,0,1,4.671-10.01,16.4,16.4,0,0,1,11.345-4.186,18.69,18.69,0,0,1,3.276.243,7.942,7.942,0,0,1,2.063.607v-5.1h-30.7Zm59.183,39.677a22.8,22.8,0,0,1,1.4-8.312,11.144,11.144,0,0,1,3.822-5.278h-8.13v-10.435h42.831v10.435H606.725a11.713,11.713,0,0,0-8.918,4,13.632,13.632,0,0,0-3.7,9.586,9.4,9.4,0,0,0,4.065,7.644,15.642,15.642,0,0,0,9.889,3.155v10.556a25.309,25.309,0,0,1-17.23-6.249Q583.671,1440.476,583.671,1431.619Zm-8.251-39.677H615.1v9.707H575.42Zm36.008,0H668.7v9.707h-9.707v50.961H648.557v-6.552a11.863,11.863,0,0,1-4.55,2.366,22.066,22.066,0,0,1-6.127.789,21.112,21.112,0,0,1,0-42.225,19.886,19.886,0,0,1,6.188.91,11.079,11.079,0,0,1,4.489,2.609v-8.858H611.428Zm26.451,25.6a10.556,10.556,0,0,0,0,21.112,10.371,10.371,0,0,0,7.523-3.094,10.4,10.4,0,0,0,0-14.924A10.371,10.371,0,0,0,637.879,1417.544Zm27.15-25.6h29.849v9.707h-9.707v50.961H674.736v-50.961h-9.707Zm26.179,0h62.124v9.707h-9.707v50.961H733.069v-6.067a10.036,10.036,0,0,1-4.186,2.305,21.5,21.5,0,0,1-6.37.849,19.76,19.76,0,0,1-14.56-6.127,20.342,20.342,0,0,1-6.067-14.864,19.544,19.544,0,0,1,.971-6.431,9.6,9.6,0,0,1,2.669-4.247H694.484v-10.435h35.187v10.435h-7.037a9.551,9.551,0,0,0-7.219,3.155,10.591,10.591,0,0,0-2.973,7.523,10.382,10.382,0,0,0,2.973,7.462,9.5,9.5,0,0,0,7.1,3.094,10.564,10.564,0,0,0,10.556-10.556v-27.058H691.208Zm58.455,0h29.849v9.707H769.8v50.961H759.37v-50.961h-9.707Z" fill="#fff"/>
    </g>
    <g id="_" data-name="?" transform="translate(436 -851)">
      <text id="_2" data-name="?" transform="translate(681.351 1450.798)" fill="#ff407d" font-size="378.586" font-family="SHREE-DEV-1094" letter-spacing="-0.01em"><tspan x="0" y="0">?</tspan></text>
      <path id="Color_Overlay-3" data-name="Color Overlay" d="M786.349,1251.892q21.443,0,36.6,15.713t15.158,37.9q0,12.2-7.579,23.662a61.817,61.817,0,0,1-20.889,19.225,22.75,22.75,0,0,0-8.688,9.613,31.821,31.821,0,0,0-3.143,14.419v29.207H764.167v-29.207q0-15.528,9.058-29.947a68.711,68.711,0,0,1,24.586-23.292,16.18,16.18,0,0,0,6.285-5.915,14.865,14.865,0,0,0,2.218-7.764,24.3,24.3,0,0,0-5.915-16.452q-5.915-6.84-14.049-6.84-9.612,0-16.267,9.243t-6.655,22.183l-30.316-12.57q3.7-21.443,18.855-35.308T786.349,1251.892Zm-25.88,165.262h40.668V1454.5H760.47Z" fill="#ffcad4"/>
    </g>
    <g id="H_m" data-name="H$m" transform="translate(430 -857)">
      <text id="H_m-2" data-name="H$m" transform="translate(208.713 1478.226)" fill="#ff407d" font-size="267.563" font-family="SHREE-DEV-1094" letter-spacing="-0.01em"><tspan x="0" y="0">H$m</tspan></text>
      <path id="Color_Overlay-4" data-name="Color Overlay" d="M206.1,1347.58H387.175v20.9H307.481v19.336a20.633,20.633,0,0,1,9.145-4.834,49.986,49.986,0,0,1,13.587-1.7,45.465,45.465,0,0,1,0,90.929A26.9,26.9,0,0,1,319.893,1470a39.6,39.6,0,0,1-10.321-6.4v-25.607a29.492,29.492,0,0,0,9.406,8.623,22.388,22.388,0,0,0,11.236,3.135,21.69,21.69,0,0,0,16.069-6.793,22.334,22.334,0,0,0,6.663-16.2,22.732,22.732,0,0,0-45.465,0v51.474H284.749v-14.371a29.972,29.972,0,0,1-9.929,5.226,42.1,42.1,0,0,1-12.8,1.829,42.979,42.979,0,0,1-31.355-12.934,42.334,42.334,0,0,1-13.065-31.224,44.243,44.243,0,0,1,13.065-32.139q13.065-13.326,31.355-13.326a42.1,42.1,0,0,1,12.8,1.829,29.967,29.967,0,0,1,9.929,5.226v-19.858H206.1Zm55.916,56.439a20.466,20.466,0,0,0-15.286,6.663,22.357,22.357,0,0,0-6.4,16.069,21.859,21.859,0,0,0,21.687,21.687,22.357,22.357,0,0,0,16.069-6.4,20.467,20.467,0,0,0,6.663-15.286,22.749,22.749,0,0,0-22.732-22.732ZM376.6,1347.58h64.278v20.9h-20.9v109.742H397.5V1368.484H376.6Z" fill="#fff"/>
    </g>
  </g>
</svg>
