<svg xmlns="http://www.w3.org/2000/svg" width="15.417" height="13.259" viewBox="0 0 15.417 13.259">
  <path id="Shape_44_1" data-name="Shape 44 1" d="M141.043,6384.58a.841.841,0,0,0,.032.605,3.394,3.394,0,0,0,.93,1.273,1.133,1.133,0,0,0,.426.213,3.077,3.077,0,0,0,.632.1c.457.034.916.058,1.374.085a3.5,3.5,0,0,0,.611,0c.051-.006.1-.011.151-.019a.2.2,0,0,0,.146-.092c.015-.024.03-.049.043-.074a3.218,3.218,0,0,1,.5-.706,2.5,2.5,0,0,0,.331-.471c.061-.106.023-.144-.076-.153-.041,0-.081-.006-.122-.011a1.886,1.886,0,0,1-.413-.1,1.512,1.512,0,0,1-.166-.07.376.376,0,0,1-.225-.284.676.676,0,0,0-.016-.083.278.278,0,0,0-.091-.144c-.068-.057-.137-.112-.2-.172a.522.522,0,0,1-.173-.292,1.812,1.812,0,0,1,.034-.836.657.657,0,0,1,.215-.333,2.757,2.757,0,0,1,.289-.208c.262-.163.527-.32.791-.48a.08.08,0,0,0,.038-.1,3.168,3.168,0,0,1-.186-.505.27.27,0,0,0-.122-.155,1.247,1.247,0,0,0-.992-.156.6.6,0,0,0-.087.026,3.415,3.415,0,0,1-.926.171,1.965,1.965,0,0,0-.392.059c-.134.038-.137.038-.1.176a.227.227,0,0,1,.006.054c0,.029-.06.068-.09.058a.633.633,0,0,1-.085-.028c-.055-.024-.106-.056-.163-.077a.336.336,0,0,0-.239,0,1.43,1.43,0,0,0-.165.073,5.376,5.376,0,0,0-.783.49,2.64,2.64,0,0,0-.531.542,1.885,1.885,0,0,0-.145.247.264.264,0,0,0-.008.219c.039.107.078.213.119.319a.5.5,0,0,1-.006.384Q141.116,6384.35,141.043,6384.58Zm2.036-4.559a1.821,1.821,0,0,0,.394.752c.136.152.264.31.4.463a.772.772,0,0,0,.127.121.19.19,0,0,0,.112.037,1.733,1.733,0,0,0,.27-.042c.108-.025.214-.06.321-.092a1.762,1.762,0,0,1,.7-.043,1.312,1.312,0,0,1,.4.14.167.167,0,0,0,.058.012c.007,0,.019-.009.023-.017a1.1,1.1,0,0,0,.065-.125,5.85,5.85,0,0,1,.426-.839,1.9,1.9,0,0,1,.3-.385.454.454,0,0,1,.206-.116,2.524,2.524,0,0,1,1.414.043,1.75,1.75,0,0,1,.348.174.047.047,0,0,0,.068-.029c.009-.14.018-.281.027-.42h-.013c0-.075,0-.15,0-.225a1.273,1.273,0,0,0-.157-.623,1.808,1.808,0,0,1-.159-.482c-.011-.046-.016-.093-.024-.139a.968.968,0,0,0-.389-.617,1.963,1.963,0,0,0-.453-.284.324.324,0,0,0-.176-.038.975.975,0,0,1-.333-.021,2.336,2.336,0,0,0-.364-.034,3.423,3.423,0,0,1-.578-.047.177.177,0,0,0-.117.009.205.205,0,0,1-.227.007.613.613,0,0,0-.239-.039c-.387,0-.775-.007-1.162-.009-.092,0-.183.005-.275.012a.186.186,0,0,0-.181.127.906.906,0,0,1-.134.251.7.7,0,0,0-.093.205.5.5,0,0,1-.258.3l-.13.074a.619.619,0,0,0-.3.436,1.751,1.751,0,0,0-.041.419A5,5,0,0,0,143.079,6380.021Zm4.962.023a2.424,2.424,0,0,0-1.087.008.283.283,0,0,0-.154.085,2.494,2.494,0,0,0-.22.267,5.38,5.38,0,0,0-.44.832.591.591,0,0,0-.057.273,1.533,1.533,0,0,0,.21.667.425.425,0,0,0,.122.124,1.162,1.162,0,0,0,.316.167,2.352,2.352,0,0,1,.66.344c.048.035.081.03.136-.006a.385.385,0,0,0,.153-.17c.025-.061.049-.122.074-.183a.114.114,0,0,1,.188-.062c.059.036.115.077.176.111a.166.166,0,0,0,.146.013.18.18,0,0,0,.067-.05.106.106,0,0,0,.012-.054.251.251,0,0,1,.157-.193,1.975,1.975,0,0,1,.36-.15c.052-.014.067-.039.056-.081s-.027-.109-.045-.163a.878.878,0,0,1-.013-.5c.02-.082.041-.164.061-.246a1.627,1.627,0,0,0,.036-.165.34.34,0,0,0-.07-.266c-.036-.045-.072-.09-.112-.133s-.113-.108-.164-.166A1.038,1.038,0,0,0,148.042,6380.043Zm1.12.564a5.95,5.95,0,0,1,.669-.442c.119-.071.247-.129.374-.188a.712.712,0,0,1,.295-.064c.132,0,.265-.007.4-.006a.4.4,0,0,1,.3.122,1.251,1.251,0,0,0,.363.252,1.43,1.43,0,0,1,.176.111.64.64,0,0,1,.248.313c.054.161.1.323.148.486a.551.551,0,0,1-.006.278q-.038.15-.067.3c0,.009.026.034.036.033a.427.427,0,0,0,.115-.032,1.535,1.535,0,0,1,.8-.117.891.891,0,0,0,.577-.132,1.333,1.333,0,0,0,.532-.529,3.835,3.835,0,0,0,.356-.894,1.9,1.9,0,0,0,.05-.361,1.168,1.168,0,0,0-.2-.723q-.247-.371-.5-.742c-.075-.111-.15-.222-.229-.331a1.415,1.415,0,0,0-.129-.157.32.32,0,0,0-.178-.1c-.03-.005-.06-.01-.09-.018a.357.357,0,0,1-.222-.14.689.689,0,0,0-.345-.219.507.507,0,0,0-.18-.023c-.091,0-.183.005-.275.01a.93.93,0,0,1-.5-.11c-.044-.024-.09-.043-.134-.068a.991.991,0,0,0-.766-.07,2.8,2.8,0,0,0-.289.09,6.664,6.664,0,0,0-.9.419c-.043.025-.086.05-.127.078a.657.657,0,0,0-.27.363,4.18,4.18,0,0,0-.106.552c-.049.305-.082.613-.136.917a3.884,3.884,0,0,0-.054.559.507.507,0,0,1,0,.112.491.491,0,0,0,.2.472A.061.061,0,0,0,149.162,6380.607Zm3.784,1.211a1.409,1.409,0,0,0-.512.063,1.035,1.035,0,0,0-.115.039c-.111.046-.221.1-.332.144-.067.082-.132.166-.2.245-.122.138-.249.273-.373.409-.026.028-.069.054-.047.094.009.018.051.026.079.029a.9.9,0,0,1,.419.159,2.255,2.255,0,0,1,.389.315.827.827,0,0,1,.249.589c0,.178,0,.355,0,.534a.483.483,0,0,1-.1.317.52.52,0,0,0-.06.127.43.43,0,0,1-.233.249.474.474,0,0,0-.243.2.569.569,0,0,1-.416.26,1.92,1.92,0,0,1-.212.025c-.081,0-.163.007-.245.007-.265,0-.285.013-.136.245a1.611,1.611,0,0,0,.379.437,2.556,2.556,0,0,1,.194.179l.148.143a1.474,1.474,0,0,0,.944.417c.437.028.872.085,1.312.075.153,0,.306,0,.459,0a1.54,1.54,0,0,0,.7-.182c.114-.061.234-.114.35-.173.071-.036.142-.073.211-.114a.513.513,0,0,0,.261-.364,1.6,1.6,0,0,1,.289-.673,2.114,2.114,0,0,0,.271-.533.912.912,0,0,0,.027-.526c-.052-.21-.106-.42-.167-.628a2.765,2.765,0,0,0-.121-.317.867.867,0,0,0-.2-.284c-.232-.224-.466-.446-.7-.672a1.393,1.393,0,0,0-.444-.292,8.276,8.276,0,0,0-1.4-.475A2.99,2.99,0,0,0,152.946,6381.818Zm-4.618,1.079a.678.678,0,0,0-.279-.075.651.651,0,0,0-.493.2.077.077,0,0,0,0,.1.892.892,0,0,0,.093.071.125.125,0,0,0,.14.019l.027-.013a1.551,1.551,0,0,1,.521-.142.061.061,0,0,0,.06-.054.164.164,0,0,0-.023-.076A.118.118,0,0,0,148.327,6382.9Zm0,.526a.066.066,0,0,0-.04-.038.417.417,0,0,0-.237.007.16.16,0,0,0-.106.092,1,1,0,0,0-.058.214.222.222,0,0,0,.133.23.118.118,0,0,0,.113,0,.36.36,0,0,0,.208-.316c0-.028,0-.056,0-.129A.255.255,0,0,0,148.324,6383.423Zm.05.8c0-.014-.029-.024-.046-.034s-.05.013-.061.045-.022.072-.033.108-.028.09-.042.134c-.009.027-.017.054-.028.081a.741.741,0,0,1-.35.411.181.181,0,0,0-.106.16c0,.037-.006.074-.013.167a.815.815,0,0,0,.047.25,2.423,2.423,0,0,0,.354.712.4.4,0,0,0,.036.045.377.377,0,0,0,.251.146.439.439,0,0,1,.242.109c.06.05.125.1.19.141a.079.079,0,0,0,.085.015c.165-.092.33-.185.493-.28.024-.014.037-.044.058-.063s.044-.048.069-.051c.149-.02.239-.14.374-.182a.211.211,0,0,0,.089-.075.508.508,0,0,0,.1-.5c-.06-.169-.121-.337-.168-.51a.722.722,0,0,0-.1-.2c-.175-.263-.355-.524-.533-.786a.058.058,0,0,0-.021-.021.3.3,0,0,0-.079-.035c-.026,0-.068.043-.075.078a.459.459,0,0,0-.018.11c.008.168-.1.254-.251.314a.3.3,0,0,1-.313-.046A.437.437,0,0,1,148.374,6384.22Zm.421-.488a.063.063,0,0,0-.04-.036c-.015,0-.045,0-.05.015a1.087,1.087,0,0,0-.111.505.184.184,0,0,0,.043.082c.045.056.111.058.188.012.043-.026.052-.062.021-.089a.137.137,0,0,0-.026-.015.109.109,0,0,1-.065-.116c.011-.092.029-.184.042-.276A.217.217,0,0,0,148.794,6383.732Zm-.181-.337a.257.257,0,0,0,.194.121c.04,0,.081,0,.14.008a1.43,1.43,0,0,0,.16-.026.124.124,0,0,0,.1-.1.12.12,0,0,0-.055-.124.49.49,0,0,0-.487-.043A.105.105,0,0,0,148.613,6383.4Zm.251-.7c-.027,0-.071,0-.08.017-.046.08-.083.163-.121.24.01.016.014.026.021.029s.039.019.052.014a.244.244,0,0,0,.169-.207.11.11,0,0,0-.006-.053C148.892,6382.719,148.877,6382.7,148.864,6382.695Zm.01-.441a.494.494,0,0,0-.26.127c-.006.006.005.039.017.046a.373.373,0,0,0,.107.046c.058.012.118.017.155.021a1.152,1.152,0,0,0,.139.022.057.057,0,0,0,.042-.03A.18.18,0,0,0,148.874,6382.254Zm2.6.138a1.259,1.259,0,0,0,.422-.791c.011-.046.024-.091.037-.136a.558.558,0,0,0,0-.3c-.035-.127-.074-.253-.118-.377a.527.527,0,0,0-.215-.266,1.569,1.569,0,0,0-.178-.107,1.088,1.088,0,0,1-.337-.237.341.341,0,0,0-.243-.1c-.02,0-.041,0-.061,0a1.3,1.3,0,0,0-.855.247c-.153.092-.3.19-.453.286a.691.691,0,0,0-.294.381,1.353,1.353,0,0,0-.1.561,1.889,1.889,0,0,0,.07.515c.038.12.136.208.171.326a.449.449,0,0,0,.106.05.162.162,0,0,1,.134.1,1.309,1.309,0,0,0,.085.148.365.365,0,0,0,.147.138.824.824,0,0,1,.227.14.212.212,0,0,0,.27.037,1.7,1.7,0,0,1,.551-.154.573.573,0,0,0,.322-.148c.082-.07.158-.146.236-.22C151.42,6382.451,151.444,6382.421,151.47,6382.392Zm-1.973.826c.041.014.112-.023.115-.065a.326.326,0,0,0-.005-.136.976.976,0,0,0-.231-.354.12.12,0,0,0-.082-.013c-.011,0-.022.028-.028.045a.3.3,0,0,0-.008.059.84.84,0,0,0,.065.32A.275.275,0,0,0,149.5,6383.218Zm.207.65a.152.152,0,0,0,.059,0,.3.3,0,0,0,.079-.036c.018-.013.011-.08-.011-.1a.314.314,0,0,0-.084-.075.591.591,0,0,0-.319-.064c-.03,0-.064.023-.062.045a.094.094,0,0,0,.014.051A.525.525,0,0,0,149.7,6383.869Zm2.4-.437a1.994,1.994,0,0,0-.417-.328.625.625,0,0,0-.318-.089,1.317,1.317,0,0,0-.363.04,1.3,1.3,0,0,1-.48.068.354.354,0,0,0-.148.029,1.865,1.865,0,0,1-.41.108.06.06,0,0,0-.03.092c.023.03.049.06.075.088a.132.132,0,0,1,.034.156c-.034.066,0,.128.005.192a.245.245,0,0,1-.228.255c-.08.008-.162,0-.243.005-.027,0-.036.016-.028.04a.219.219,0,0,0,.02.053,4.687,4.687,0,0,0,.469.623c.135.14.253.293.38.44a.507.507,0,0,0,.542.244h.09c.074,0,.176-.009.277-.018a.44.44,0,0,0,.373-.211.569.569,0,0,1,.289-.241.258.258,0,0,0,.151-.167.332.332,0,0,1,.056-.13.434.434,0,0,0,.1-.342c0-.141,0-.281,0-.422A.675.675,0,0,0,152.108,6383.432Zm-4.737-.221a.235.235,0,0,1-.056-.128.256.256,0,0,0-.141-.2,1.623,1.623,0,0,0-.369-.2,2.545,2.545,0,0,1-.438-.2.209.209,0,0,0-.2-.006c-.081.039-.161.081-.237.127-.2.125-.4.251-.607.378-.017.011-.033.022-.05.032a.71.71,0,0,0-.356.531,1.649,1.649,0,0,0,0,.558.43.43,0,0,0,.134.247,1.548,1.548,0,0,0,.157.133.446.446,0,0,1,.185.281c.006.028.015.054.02.082a.208.208,0,0,0,.125.15,1.422,1.422,0,0,0,.491.146c.091.01.183.012.274.018a1.957,1.957,0,0,0,.713-.132,3.525,3.525,0,0,1,.52-.159.745.745,0,0,0,.144-.045.458.458,0,0,0,.24-.207,1.032,1.032,0,0,0,.133-.4c0-.038-.022-.062-.076-.065a.426.426,0,0,0-.061,0,.074.074,0,0,1-.074-.039,1.508,1.508,0,0,1-.158-.392.154.154,0,0,0-.111-.124.631.631,0,0,1-.083-.035.124.124,0,0,1-.065-.09.162.162,0,0,1,0-.056A.249.249,0,0,0,147.371,6383.211Zm3.673,3.254c-.111-.11-.221-.221-.323-.338a1.7,1.7,0,0,1-.368-.641.334.334,0,0,0-.111-.2.034.034,0,0,0-.025-.005c-.007,0-.017.016-.015.021.014.044.03.088.046.136a.63.63,0,0,1,.008.517.489.489,0,0,1-.187.249,9.022,9.022,0,0,1-.964.593c-.268.144-.289.118-.488-.027a1.14,1.14,0,0,1-.1-.07.354.354,0,0,0-.186-.088.585.585,0,0,1-.389-.251,2.537,2.537,0,0,1-.393-.788,1.741,1.741,0,0,1-.039-.307c0-.037,0-.075,0-.112a.074.074,0,0,0-.1-.075,1.007,1.007,0,0,0-.145.043,2,2,0,0,1-.548.17,1.191,1.191,0,0,0-.146.041.163.163,0,0,0-.092.069c-.01.016-.02.032-.029.049a3.522,3.522,0,0,1-.517.727,2.5,2.5,0,0,0-.4.6.869.869,0,0,0-.088.519,4.2,4.2,0,0,0,.2.877c.036.1.078.193.124.287a1.08,1.08,0,0,0,.329.4c.071.053.14.109.213.16a14.3,14.3,0,0,0,1.417.881,3.935,3.935,0,0,0,.78.319.7.7,0,0,0,.417,0,8.036,8.036,0,0,0,.854-.306,2.459,2.459,0,0,0,.494-.278c.182-.136.366-.27.537-.416a3.115,3.115,0,0,0,.325-.334,1.248,1.248,0,0,0,.283-.555c.06-.275.147-.545.182-.825a1.165,1.165,0,0,0,.014-.168.744.744,0,0,0-.24-.56C151.27,6386.683,151.155,6386.576,151.045,6386.465Z" transform="translate(-141.001 -6377.001)" fill="#fe3d7d"/>
</svg>
